<?xml version="1.0" encoding="utf-8" ?>
<!-- Generator: Adobe Illustrator 26.5.0, SVG Export Plug-In . SVG Version: 6.00 Build 0)  -->
<svg
  version="1.1"
  id="Layer_2"
  xmlns="http://www.w3.org/2000/svg"
  x="0px"
  y="0px"
  viewBox="0 0 504.1 512"
  style="enable-background:new 0 0 504.1 512;"
  xml:space="preserve">
<style type="text/css">
.st0 {
  fill: #d7a2ff;
  stroke: #000000;
  stroke-miterlimit: 10;
}
  </style>
  <path
    class="st0"
    d="M396,487c0,0-13,19-42,20s-189-4-189-4s-12-23-11-36s11-86,11-86l-49,9c0,0-19-13-18-24s4-63,4-63h52
	c0,0,48.6,59,68.5,58s52.9,30,52.9,30s59.6-43,68.6-44s51.4-44,51.4-44H453l-4,77.9c0,0-3.8,3.2-27.8,5.1s-32.9-17.5-32.9-17.5" />
  <g id="Layer_3">
	<polygon
      class="st0"
      points="125,182 186,147 253,16 269,9 292,13 360,141 427,186 423,204 130,205 	" />
</g>
  <g id="Layer_1">
	<path
      d="M167.6,512c-12.6-4.7-20.5-13.4-20.6-27.1c0-8.8,1.7-17.5,2.7-26.3c2.7-22.6,5.4-45.3,8.2-67.9c0.4-3.6-1.2-3.5-3.8-2.8
		c-9.4,2.8-19,5.2-28.2,8.5c-18.1,6.4-30.7-5.9-33.3-19.1c-0.3-1.8-0.3-4-2.8-4c-3.4-0.1-7-1-10.3,0.4c-1.3,0.6-0.7,2.8-0.6,4.2
		c1.1,14.9,2.1,29.9,3.3,44.8c1.2,15.9,2.5,31.9,3.7,47.8c0.4,4.6,0.9,9.3,0.9,14c0.1,9.5-6.2,16.6-15.6,17.7c-4,0.5-8,0.8-11.9,1
		c-9.2,0.4-16.8-5.3-18-14.5c-1.4-11.2-2-22.5-2.9-33.8c-2-25.4-3.9-50.8-5.8-76.2c-1.5-20.1-2.9-40.2-4.3-60.3
		c-0.8-10.8-1.7-21.6-2.6-32.4c-0.3-3-0.5-6,1.5-8.6c2-2.6,4.6-3.9,7.9-3.2c3.7,0.7,5.9,3.1,6.5,6.8c0.6,4.3,1,8.6,1.3,12.9
		c2.4,33.4,4.8,66.7,7.3,100.1c2.2,29.5,4.6,59.1,6.8,88.6c0.2,3.2,1.3,4.3,4.5,4.3c8.5,0,9.5-0.8,8.9-9.4
		c-1.8-24.2-3.8-48.5-5.6-72.7c-0.8-11.1-1.7-22.2-2.3-33.4c-0.2-3.9-1.2-6.9-4-9.8c-13.7-13.7-15.1-34-3.7-49.8
		c1.7-2.4,3-4.6,2.7-7.7c-1.9-24-3.8-48.1-5.7-72.2c-1-13.3-2.1-26.6-2.9-39.8c-0.2-3.7-1.4-4.6-5.3-4.1c-9,1.4-8.7,1.1-8,10.3
		c1.5,17.6,2.6,35.2,3.8,52.8c0.3,4.8-3.2,8.7-7.6,8.9c-4.1,0.3-7.9-3-8.3-7.7c-1.4-17.2-2.7-34.5-4-51.8c-0.4-5.1-0.8-10.3-1-15.4
		c-0.1-2.3-1.4-3.5-3-4.8c-13.3-11-18.4-25-13.4-41.5c4.9-16.4,16.9-26,33.9-27.6c15.1-1.4,27.4,5.1,35.5,18
		c8.5,13.7,9.2,28.5-0.7,41.2c-6.4,8.2-6.2,16.1-5.5,24.9c1.6,21.1,3.2,42.2,4.8,63.2c0.9,11.8,1.9,23.6,2.8,35.3
		c0.2,2.2,0.5,4,3.5,3.4c14.1-2.7,28.3-1,42.4-1.4c6.8-0.2,13.7-0.1,20.5,0c2.7,0,4.1-0.6,3.2-3.8c-6.9-26.2-1.2-50.8,9.4-74.8
		c2.2-5.1,2.3-5-3.1-5.1c-4.5,0-9,0-13.5,0c-9.4-0.1-15.7-4.9-19.4-13.3c-3.7-8.5-1.9-17.8,4.9-23.9c13-11.7,28.2-20.4,44.2-26.9
		c12.2-4.9,19.8-12.4,25.4-24.4c15.7-33.1,32.8-65.6,48.9-98.5C245.3,12.8,254,3.9,267.6,0h16c13.3,3.9,21.9,12.7,28,25.1
		c18.1,36.9,36.9,73.6,55.3,110.4c1.8,3.5,4,5.9,7.6,7.3c9.8,3.9,19.1,8.7,28.3,13.7c9.5,5.2,18.8,10.8,27,18
		c7,6.2,9.1,15.3,5.9,23.7c-3.5,9-10.7,14-20.3,14.1c-2.5,0-5,0-7.5,0c-10.8,0-10.6-0.1-6.5,9.8c9,21.8,13.6,44.2,8,67.8
		c-1.4,6-1.4,6,4.9,6.1c18.6,0.3,37.3-0.9,55.9,0.7c22.2,1.9,38.2,24.3,33.1,46c-4.3,18.2-18.9,29.6-39,30.4c-2.8,0.1-4.9,0-5.6,3.9
		c-2.8,16-16.3,24.2-31.8,19.7c-9.9-2.8-19.8-5.8-29.7-8.8c-3.1-0.9-4.5-0.3-3.9,3.2c0.5,2.6,0.6,5.3,1,7.9
		c3.2,26.6,6.4,53.2,9.6,79.8c1,8.7-0.2,16.9-6.1,24c-3.8,4.5-8.8,7-14,9.3L167.6,512L167.6,512z M275.4,496.6c32.2,0,64.3,0,96.5,0
		c2.7,0,5.3,0,7.9-0.8c5.4-1.7,8.9-6.6,8.3-12.2c-2.4-20.3-4.9-40.6-7.3-61c-1.8-14.9-3.6-29.7-5.3-44.6c-0.5-4.1,0.5-7.7,4.5-9.7
		c2.7-1.3,5.5-0.7,8.3,0.1c14.2,4.2,28.4,8.4,42.7,12.5c7.4,2.1,11.5-0.8,11.6-8.3c0.1-18.5,0-37,0.1-55.5c0-3.6-1.2-5.1-4.9-5
		c-7.8,0.2-15.7,0.6-23.5-0.1c-9.1-0.8-14.8,1.9-20.2,10c-13.8,20.5-34.4,33.1-56.6,42.9c-16.9,7.4-34,14.5-48,27.2
		c-8.4,7.6-20.1,6.6-28.8-0.9c-3.7-3.2-7.4-6.2-11.4-8.9c-11.6-7.8-24.6-12.6-37.2-18.3c-24.3-11-45.6-25.7-59.8-48.9
		c-1.4-2.4-3.3-2.9-5.8-2.9c-10.7,0.1-21.3,0.2-32-0.1c-4.4-0.1-5.8,1.4-5.8,5.7c0.2,17.7,0.1,35.3,0.1,53c0,9.9,3.6,12.5,13.2,9.7
		c13.9-4.1,27.8-8.3,41.7-12.2c8.3-2.3,13.1,2,12.1,10.4c-4.2,34.7-8.4,69.4-12.6,104.1c-0.5,4.3,0.8,7.9,4.1,10.8
		c3.3,2.8,7.3,3,11.3,3C210.7,496.7,243.1,496.7,275.4,496.6L275.4,496.6z M210.2,275.5c-1.2-0.5-2.4-1-3.7-1.4
		c-15.1-5.2-23.9-15.9-26.9-31.3c-1.6-8.8-0.9-17.6,1.6-26.2c0.4-1.4,1.8-3.2-0.8-4.2c-3.8-1.5-8.5,0.2-10.4,4
		c-4.9,9.7-9.1,19.7-11.6,30.2c-7.2,29.9-0.9,56.1,21.5,77.8c12.6,12.2,27.6,20.7,43.9,27.2c16.8,6.7,33,14.4,46.5,26.8
		c3.5,3.2,7.1,3,10.7-0.2c10.6-9.6,23.1-16.3,36.1-22c17.8-7.7,35.5-15.3,50.2-28.4c18.2-16.2,28.8-35.9,28.1-60.9
		c-0.5-18.6-6.7-35.5-15-51.9c-2.3-4.6-6.5-3.4-9.6-2.6c-3.9,0.9-0.5,4.1-0.5,6.2c0,1.6,0.8,3.2,1,4.9c3.5,23.8-5.4,43.5-27.7,50.5
		c-2.5,0.8-2.9,1.6-1.6,4.1c3.4,6.7,2.2,13.2-3.6,16.8c-16.8,10.3-41.8,15.8-60.2,1.8c-2-1.5-3.4-1.5-5.2,0
		c-4.6,3.7-10,5.9-15.8,7.2c-13.5,2.9-26.1-0.2-38.3-5.7C207,293.4,204.6,287.2,210.2,275.5L210.2,275.5z M275.3,196.6
		c45.5,0,91,0,136.5,0c3.8,0,7.7-0.2,9.1-4.5c1.3-4-2-6-4.6-8C401.5,173,385,165,368.3,157.5c-3.7-1.7-7.5-2.4-11.6-2.4
		c-46.8,0.1-93.6,0-140.5,0c-20.6,0-40,4.8-58.3,14.4c-8.7,4.6-17.1,9.8-24.8,15.9c-2.2,1.7-3.8,3.9-2.9,6.9c1,3.2,3.6,4.1,6.6,4.2
		c1.7,0.1,3.3,0.1,5,0.1C186.3,196.6,230.8,196.6,275.3,196.6L275.3,196.6z M275.6,138.8c23.3,0,46.7-0.1,70,0.1
		c3.8,0,5-0.8,2.9-4.5c-2-3.5-3.8-7-5.3-10.7c-1.5-3.7-3.9-4.8-7.8-4.7c-7.8,0.2-15.7,0.2-23.5-0.2c-5.8-0.3-8.8-3.6-8.6-8.3
		c0.2-4.7,3.5-7.5,9.3-7.6c5-0.1,10-0.1,15,0c3.3,0.1,4.7-0.4,2.9-4.1c-12-23.6-23.8-47.3-35.7-71c-4-7.9-10.7-12.1-19.3-12
		c-8.6,0.1-15.2,4.4-19.1,12.3c-11.8,23.4-23.5,46.7-35.4,70c-2,3.9-1.1,4.8,3,4.7c17.3-0.2,34.7-0.1,52-0.1c2.2,0,4.4-0.1,6.5,0.1
		c4.4,0.6,7.1,3.3,7.2,7.6c0.1,4.1-2.2,7-6.4,7.8c-2.6,0.5-5.3,0.7-8,0.7c-16.2,0.1-32.4,1-48.5-0.3c-12.6-1-20,2.7-23.8,14.8
		c-1.7,5.4-2.3,5.3,3.7,5.3C229.6,138.8,252.6,138.8,275.6,138.8L275.6,138.8z M275.6,212.3c-22.6,0-45.3,0-67.9,0
		c-7.8,0-8,0.1-10.5,7.7c-0.3,0.9-0.6,1.9-0.8,2.9c-5.1,19.7,2.5,33.4,20.6,37.4c3.8,0.8,6.4,0.1,9-3.2c9.1-11.8,21-19.7,36.3-18.1
		c8.9,0.9,17.3,1,26.2,0c15.4-1.8,27,6.3,36.5,17.9c1.6,2,2.9,4.1,5.9,3.8c10.8-1.2,22.3-6.7,24.6-20.8c1.2-7.7-0.2-14.8-2.4-22.1
		c-1.3-4.1-3.6-5.6-8-5.6C321.9,212.5,298.7,212.3,275.6,212.3L275.6,212.3z M304.4,289.5c5.6-0.5,11.2-1.5,16.5-3.5
		c3-1.1,3.8-2.3,1.5-5c-1.9-2.3-3.5-4.8-5.3-7.2c-4.1-5.7-7.9-11.7-14.1-15.3c-7.4-4.3-14.9-5.5-22.4-0.1c-3.4,2.4-6.8,2.4-10.2-0.1
		c-2.5-1.8-5-3-8.2-3.3c-7.3-0.6-13.3,2.1-18.6,6.8c-6.4,5.7-10.2,13.5-15.7,20c-1.3,1.5-0.8,2.8,1,3.5c12.2,5,27.5,6.8,38.4-4.8
		c6.5-6.9,9.9-6.9,16.5,0.1C289.4,286.7,296.4,289.1,304.4,289.5L304.4,289.5z M39.3,171.9c12.1-0.1,22.1-10.3,22-22.5
		c-0.1-12-10.5-22.2-22.5-22.1S15.9,138,16,150C16.1,162.1,26.6,172,39.3,171.9L39.3,171.9z M92.2,334.8c0-6.1-0.1-12.3,0-18.4
		c0-2.6-0.7-4-3.6-4.1c-9.3-0.3-17.1,2.5-22.2,10.7c-4.8,7.6-4.8,15.4,0,23c5.1,8.1,12.7,11.1,22.1,10.8c2.9-0.1,3.7-1.4,3.7-4
		C92.2,346.7,92.2,340.8,92.2,334.8L92.2,334.8z M458.9,334.5c0,6.1,0.1,12.3,0,18.4c0,2.8,1.1,3.7,3.9,3.9
		c14,0.9,25.6-9.2,25.4-22.2c-0.2-13.4-11.3-23.1-25.3-22.3c-3.1,0.2-4,1.4-4,4.3C458.9,322.5,458.8,328.5,458.9,334.5L458.9,334.5z
		" />
    <path
      d="M336.9,230.8c-0.3,2.5-0.3,5-0.8,7.4c-0.9,4.1-3.6,6.2-7.9,6.1c-4.3-0.1-7-2.6-7.5-6.6c-0.5-4.4-0.5-9-0.1-13.4
		c0.4-4.1,3.1-6.6,7.4-6.8c4.2-0.2,7,1.9,8.1,5.9C336.7,225.8,336.6,228.3,336.9,230.8L336.9,230.8z" />
    <path
      d="M230.9,231.2c-0.1,2.3,0,4.5-0.5,6.6c-0.9,3.9-3.3,6.4-7.6,6.5c-4.3,0.1-7.1-2.1-7.9-6.1c-1-4.7-1-9.6,0-14.3
		c0.8-4,3.5-6.4,7.8-6.4s6.8,2.5,7.7,6.4C230.9,226.3,230.8,228.9,230.9,231.2L230.9,231.2z" />
    <path d="M154,303" />
    <text x="100" y="490" style="font: bold 700px serif; fill: red">2</text>
</g>
</svg>
