<?xml version="1.0" encoding="utf-8"?>
<!-- Generator: Adobe Illustrator 26.5.0, SVG Export Plug-In . SVG Version: 6.00 Build 0)  -->
<svg version="1.1" id="Layer_1" xmlns="http://www.w3.org/2000/svg" x="0px" y="0px"
	 viewBox="0 0 32 32" style="enable-background:new 0 0 32 32;" xml:space="preserve">
<style type="text/css">
	.st0{fill:#FC9D9D;stroke:#000000;stroke-miterlimit:10;}
</style>
	<path class="st0" d="M4,2C2.9,2,2,2.9,2,4v9.2c0,0.5,0.2,1,0.6,1.4l14,14c0.8,0.8,2,0.8,2.8,0l9.2-9.2c0.8-0.8,0.8-2,0-2.8l-14-14
	C14.2,2.2,13.7,2,13.2,2H4z M12,9c0,1.7-1.3,3-3,3s-3-1.3-3-3s1.3-3,3-3S12,7.3,12,9z"/>
</svg>
