<?xml version="1.0" encoding="UTF-8"?>
<svg id="Layer_1" xmlns="http://www.w3.org/2000/svg" viewBox="0 0 511.83 511.85">
	<path
		d="M453.84,511.85H160.94c-1.33-1.86-3.55-1.4-5.33-1.87-16.58-4.39-29.16-14.06-38.08-28.59-9.98-16.24-13.33-34.26-13.46-52.96-.21-29.14,.01-58.28-.14-87.41-.03-5.64,1.9-9.83,6.17-13.42,6.1-5.13,11.92-10.59,18.06-16.09-5.6-3.65-10.71-7.37-16.19-10.43-5.93-3.31-8.11-7.87-8.08-14.65,.2-49.79,.06-99.57,.2-149.36,.01-3.98-.67-5.31-5.01-5.22-15.98,.31-31.97,.15-47.95,.1-2.82,0-5.69-.02-8.44-.55-21.89-4.24-32.92-19.54-39.59-39.2-1.14-3.37-.98-7.13-3.1-10.21v-22.99c2.42-4.19,2.38-9.08,3.88-13.55C10.09,26.87,20.41,11.82,38.97,3.74,42.51,2.19,46.31,1.23,49.98,0,168.61,0,287.24,0,405.86,0c.35,.29,.67,.78,1.05,.83,21.13,2.94,35.93,14.49,45.34,33.34,7.41,14.85,5.83,30.8,5.19,46.53-.2,4.93-4.46,7.93-9.8,8.22-3.65,.2-7.34-.16-10.98,.15-1.84,.16-4.67-1.72-5.45,1.46-.71,2.89,.17,5.31,2.97,7.2,4.82,3.25,9.4,6.87,13.99,10.45,7.08,5.52,6.69,13.05-.92,17.97-5.85,3.78-11.78,7.43-18.15,11.43,7.95,5.79,15.53,11.43,23.24,16.88,3.88,2.74,5.59,6.24,5.55,10.99-.13,13.98-.05,27.97-.05,41.96,0,56.28,0,112.55,0,168.83,0,2.36-.71,4.67,3.01,5.6,20.95,5.24,35.89,17.8,45.16,37.37,2.7,5.7,3.47,11.9,5.8,17.64v18.99c-1.57,.49-.97,1.92-1.21,2.94-5.79,24.26-20.18,40.95-43.71,49.49-4.23,1.53-8.7,2.39-13.06,3.56Zm-28.35-395.65c-3.6-2.76-6.59-5.11-9.64-7.38-3.01-2.24-4.65-5.22-4.69-8.94-.08-6.66-.26-13.34,.04-19.99,.32-7.24,4.24-10.74,11.57-10.88,4.16-.08,8.33-.09,12.49,.02,1.87,.05,2.46-.51,2.65-2.48,2.63-26.67-15.1-46.51-41.82-46.52-95.3-.03-190.6-.01-285.9,.02-1.39,0-2.94-.59-4.45,.74,4.78,6.23,8.69,12.89,11.4,20.24,5.52,14.92,6.89,30.41,6.88,46.14-.03,64.31,.02,128.63-.1,192.94,0,3.6,1.01,5.71,4.11,7.57,6.98,4.19,13.76,8.74,20.55,13.25,7.63,5.06,8.08,11.9,1.22,18.08-7.55,6.81-15.08,13.62-22.76,20.28-2.19,1.9-3.11,3.84-3.1,6.8,.1,26.49-.06,52.98,.08,79.47,.04,7.48,.44,14.99,1.93,22.36,2.98,14.76,8.72,28.01,21.62,36.9,17.39,11.98,38.14,8.71,49.65-8.26,10.09-14.89,13.14-31.45,9.08-49.08-2.19-9.5-6.69-17.72-14.85-23.49-11.33-8.02-26.4-3.33-29.26,9.36-2.5,11.09,1.3,24.38,16.17,24.75,5.8,.14,9.69,5.22,9.28,10.39-.44,5.57-4.98,9.55-10.99,9.3-7.82-.33-15.09-2.46-21.26-7.51-12.68-10.37-17.3-29.2-11.31-45.93,5.28-14.75,19.61-24.39,36.6-24.4,84.14-.04,168.27-.06,252.41,.05,3.91,0,4.87-.98,4.86-4.87-.13-67.31-.12-134.62,0-201.94,0-3.44-1.16-5.39-3.83-7.28-9.25-6.52-18.4-13.18-27.49-19.93-7.47-5.54-7.2-13.19,.57-18.22,5.86-3.79,11.81-7.45,18.31-11.55ZM210.85,491.85c2.56,0,4.32,0,6.08,0,74.28,0,148.57,0,222.85,.01,4.5,0,8.97-.24,13.44-.81,29.2-3.71,47.52-38.45,34.07-64.71-9.19-17.94-24.11-26.43-44-26.44-74.62-.05-149.24-.02-223.85,0-1.06,0-2.27-.48-3.41,.67,3.69,5.54,7.11,11.35,8.52,17.81,1.06,4.81,3.29,5.6,7.72,5.59,49.8-.16,99.6-.11,149.4-.09,7.32,0,11.97,3.84,12.13,9.77,.16,6.09-4.65,10.12-12.19,10.22-1,.01-2,0-3,0h-124.42c-7.16,0-14.33,.13-21.48-.06-3.25-.09-5.27,.16-5.19,4.29,.06,3.44-.76,6.92-1.44,10.34-2.41,12.01-7.24,22.99-15.22,33.41ZM82.21,111.96c6.73,0,12.89-.03,19.04,.02,1.68,.01,2.83-.08,2.8-2.32-.22-16.8,1.07-33.71-2.36-50.3-3.82-18.49-12.22-33.41-32.54-38.02-14.14-3.21-26.39-.6-35.95,11-9.93,12.04-13.59,26.18-12.99,41.38,.53,13.43,4.85,25.54,16.16,33.93,12.71,9.42,28.54,2.73,30.07-12.74,1.04-10.52-3.59-20.55-16.33-21.08-6.23-.26-9.98-4.98-9.55-10.56,.42-5.41,4.71-9.44,10.49-9.19,13.83,.6,24.7,6.4,30.95,19.16,6.12,12.5,6.17,25.27,.21,38.72Z"
		fill="#010101"/>
	<path
		d="M425.49,116.19c-6.5,4.09-12.45,7.75-18.31,11.55-7.77,5.03-8.04,12.68-.57,18.22,9.09,6.74,18.24,13.41,27.49,19.93,2.68,1.89,3.84,3.84,3.83,7.28-.12,67.31-.12,134.62,0,201.94,0,3.89-.95,4.88-4.86,4.87-84.14-.11-168.27-.09-252.41-.05-16.98,0-31.32,9.65-36.6,24.4-5.99,16.74-1.37,35.56,11.31,45.93,6.17,5.05,13.44,7.18,21.26,7.51,6.01,.26,10.55-3.73,10.99-9.3,.41-5.18-3.48-10.25-9.28-10.39-14.87-.37-18.67-13.66-16.17-24.75,2.86-12.69,17.93-17.38,29.26-9.36,8.15,5.77,12.65,13.99,14.85,23.49,4.07,17.63,1.02,34.19-9.08,49.08-11.5,16.96-32.25,20.24-49.65,8.26-12.9-8.89-18.64-22.13-21.62-36.9-1.49-7.37-1.89-14.89-1.93-22.36-.14-26.49,.02-52.98-.08-79.47-.01-2.96,.92-4.9,3.1-6.8,7.68-6.66,15.21-13.47,22.76-20.28,6.86-6.18,6.41-13.02-1.22-18.08-6.79-4.5-13.57-9.05-20.55-13.25-3.09-1.86-4.11-3.97-4.11-7.57,.12-64.31,.07-128.63,.1-192.94,0-15.74-1.36-31.23-6.88-46.14-2.72-7.35-6.62-14.01-11.4-20.24,1.51-1.33,3.07-.74,4.45-.74,95.3-.04,190.6-.05,285.9-.02,26.72,0,44.45,19.85,41.82,46.52-.2,1.98-.78,2.53-2.65,2.48-4.16-.1-8.33-.1-12.49-.02-7.33,.14-11.25,3.64-11.57,10.88-.29,6.65-.12,13.33-.04,19.99,.05,3.72,1.68,6.7,4.69,8.94,3.05,2.27,6.04,4.62,9.64,7.38Zm-142.59,37.76c29.79,0,59.59,0,89.38-.02,1.99,0,4.03,.02,5.95-.4,4.86-1.05,7.79-4.82,7.78-9.61,0-4.79-2.96-8.52-7.82-9.58-1.76-.38-3.63-.38-5.45-.38-60.09-.02-120.17-.01-180.26-.02-2.16,0-4.32-.04-6.41,.72-4.86,1.77-7.42,6.42-6.27,11.5,1.17,5.16,4.99,7.76,11.72,7.77,30.46,.03,60.92,.01,91.38,.01Zm.05,35.99c-29.79,0-59.59,0-89.38,0-9.41,0-14.34,3.54-14.19,10.18,.15,6.5,4.89,9.82,14.06,9.82,59.59,0,119.18,0,178.76,0,2.32,0,4.66,.19,6.92-.61,4.41-1.56,6.84-4.61,6.87-9.31,.03-4.69-2.35-7.79-6.74-9.4-2.09-.77-4.26-.66-6.42-.66-29.96,0-59.92,0-89.88,0Zm-.61,55.98c-29.63,0-59.25,0-88.88,0-9.18,0-13.92,3.3-14.08,9.79-.17,6.64,4.77,10.2,14.17,10.2,59.59,0,119.18,0,178.76,0,2.32,0,4.66,.17,6.92-.65,4.39-1.6,6.78-4.7,6.76-9.39-.02-4.7-2.45-7.76-6.85-9.33-2.1-.75-4.26-.62-6.42-.62-30.13,0-60.25,0-90.38,0Zm.59,75.98c29.79,0,59.59,0,89.38-.02,1.99,0,4.03,.02,5.95-.4,4.84-1.06,7.78-4.84,7.75-9.63-.02-4.79-2.98-8.5-7.85-9.57-1.6-.35-3.3-.37-4.96-.37-60.25-.02-120.51-.01-180.76-.02-2.17,0-4.32-.03-6.41,.73-4.86,1.78-7.4,6.44-6.24,11.52,1.18,5.15,5,7.74,11.74,7.74,30.46,.03,60.92,.01,91.38,.01Zm21.4-243.93c-23.14,0-46.29,0-69.43,0-8.08,0-12.9,3.76-12.91,9.98,0,6.22,4.82,9.97,12.89,10.01,.33,0,.67,0,1,0,45.46,0,90.91,0,136.37,0,2.49,0,5.01,.19,7.4-.79,4.11-1.68,6.35-4.72,6.36-9.19,0-4.48-2.23-7.52-6.33-9.21-2.22-.91-4.56-.8-6.9-.8-22.81,0-45.62,0-68.43,0Zm-105.23,9.92c-.04-5.34-4.49-9.84-9.76-9.87-5.19-.03-9.82,4.53-9.93,9.78-.11,5.41,4.71,10.25,10.08,10.12,5.28-.13,9.64-4.68,9.6-10.02Z"
		fill="#fdd99a"/>
	<path
		d="M210.85,491.85c7.98-10.42,12.81-21.4,15.22-33.41,.69-3.41,1.51-6.9,1.44-10.34-.08-4.13,1.95-4.38,5.19-4.29,7.16,.19,14.32,.06,21.48,.06h124.42c1,0,2,.01,3,0,7.54-.09,12.35-4.13,12.19-10.22-.16-5.93-4.81-9.76-12.13-9.77-49.8-.03-99.6-.07-149.4,.09-4.44,.01-6.66-.77-7.72-5.59-1.42-6.45-4.83-12.26-8.52-17.81,1.15-1.15,2.36-.67,3.41-.67,74.62-.03,149.24-.05,223.85,0,19.89,.01,34.81,8.51,44,26.44,13.45,26.26-4.87,61-34.07,64.71-4.48,.57-8.94,.81-13.44,.81-74.28-.02-148.57-.01-222.85-.01-1.76,0-3.51,0-6.08,0Zm221.84-57.99c0-5.16-4.81-9.93-9.98-9.92-5.28,0-9.87,4.64-9.86,9.95,0,5.32,4.6,9.93,9.89,9.92,5.17,0,9.96-4.79,9.95-9.95Z"
		fill="#fdd99a"/>
	<path
		d="M82.21,111.96c5.96-13.45,5.91-26.22-.21-38.72-6.25-12.77-17.12-18.56-30.95-19.16-5.78-.25-10.07,3.77-10.49,9.19-.43,5.58,3.32,10.3,9.55,10.56,12.75,.54,17.37,10.56,16.33,21.08-1.53,15.47-17.36,22.16-30.07,12.74-11.31-8.38-15.63-20.49-16.16-33.93-.6-15.2,3.06-29.34,12.99-41.38,9.56-11.6,21.81-14.21,35.95-11,20.32,4.61,28.72,19.54,32.54,38.02,3.43,16.59,2.13,33.5,2.36,50.3,.03,2.24-1.12,2.33-2.8,2.32-6.15-.05-12.31-.02-19.04-.02Z"
		fill="#fdd99a"/>
	<path
		d="M282.9,153.96c-30.46,0-60.92,.01-91.38-.01-6.73,0-10.55-2.61-11.72-7.77-1.15-5.07,1.41-9.73,6.27-11.5,2.09-.76,4.24-.72,6.41-.72,60.09,0,120.17,0,180.26,.02,1.82,0,3.69,0,5.45,.38,4.87,1.06,7.81,4.79,7.82,9.58,0,4.79-2.92,8.56-7.78,9.61-1.92,.42-3.96,.4-5.95,.4-29.79,.02-59.59,.02-89.38,.02Z"
		fill="#010101"/>
	<path
		d="M282.95,189.94c29.96,0,59.92,0,89.88,0,2.16,0,4.32-.11,6.42,.66,4.39,1.61,6.77,4.71,6.74,9.4-.03,4.7-2.47,7.75-6.87,9.31-2.27,.8-4.6,.61-6.92,.61-59.59,0-119.18,0-178.76,0-9.17,0-13.91-3.32-14.06-9.82-.15-6.64,4.78-10.18,14.19-10.18,29.79,0,59.59,0,89.38,0Z"
		fill="#010101"/>
	<path
		d="M282.34,245.92c30.13,0,60.25,0,90.38,0,2.16,0,4.32-.12,6.42,.62,4.4,1.57,6.83,4.63,6.85,9.33,.02,4.69-2.37,7.78-6.76,9.39-2.26,.82-4.59,.65-6.92,.65-59.59,0-119.18,0-178.76,0-9.4,0-14.34-3.56-14.17-10.2,.16-6.49,4.9-9.79,14.08-9.79,29.63,0,59.25,0,88.88,0Z"
		fill="#010101"/>
	<path
		d="M282.93,321.91c-30.46,0-60.92,.01-91.38-.01-6.74,0-10.56-2.59-11.74-7.74-1.16-5.08,1.38-9.73,6.24-11.52,2.09-.77,4.24-.73,6.41-.73,60.25,0,120.51,0,180.76,.02,1.65,0,3.35,.02,4.96,.37,4.87,1.07,7.83,4.78,7.85,9.57,.02,4.79-2.91,8.57-7.75,9.63-1.92,.42-3.96,.4-5.95,.4-29.79,.02-59.59,.02-89.38,.02Z"
		fill="#010101"/>
	<path
		d="M304.34,77.97c22.81,0,45.62,0,68.43,0,2.33,0,4.68-.11,6.9,.8,4.11,1.69,6.34,4.73,6.33,9.21,0,4.48-2.25,7.51-6.36,9.19-2.39,.98-4.9,.79-7.4,.79-45.46,0-90.91,0-136.37,0-.33,0-.67,0-1,0-8.07-.04-12.9-3.79-12.89-10.01,0-6.22,4.83-9.98,12.91-9.98,23.14-.02,46.29,0,69.43,0Z"
		fill="#010101"/>
	<path
		d="M199.1,87.9c.04,5.34-4.33,9.89-9.6,10.02-5.37,.13-10.19-4.7-10.08-10.12,.1-5.25,4.73-9.81,9.93-9.78,5.26,.03,9.72,4.54,9.76,9.87Z"
		fill="#010101"/>
	<path
		d="M432.69,433.86c0,5.15-4.78,9.94-9.95,9.95-5.29,0-9.88-4.6-9.89-9.92,0-5.31,4.58-9.94,9.86-9.95,5.17,0,9.97,4.76,9.98,9.92Z"
		fill="#010101"/>
</svg>
