<?xml version="1.0" encoding="utf-8" ?>
<!-- MIT License https://www.svgrepo.com/svg/406030/label -->
<svg viewBox="0 0 36 36" width="36" height="36" fill="#000000" xmlns="http://www.w3.org/2000/svg">
  <g id="SVGRepo_iconCarrier">
    <path
      d="M 32.017 20.181 L 17.345 5.746 C 16.687 5.087 15.823 5 14.96 5 L 4.883 5 C 3.029 5 2 6.029 2 7.883 L 2 17.965 C 2 18.826 2.089 19.688 2.746 20.345 L 17.3 35.017 C 18.588 36.327 20.7 36.327 21.988 35.017 L 32.047 24.929 C 33.357 23.617 33.327 21.491 32.017 20.181 Z M 9.228 12.574 C 8.413 13.389 5.695 12.268 5.397 11.154 C 5.258 10.638 5.925 9.163 6.303 8.785 C 7.118 7.97 10.009 8.573 10.308 9.686 C 10.446 10.203 9.606 12.196 9.228 12.574 Z"
      style="fill: rgb(251, 164, 164);" />
    <path
      d="M 11.119 7.906 C 9.476 6.295 6.808 6.295 5.166 7.906 C 2.874 10.151 3.922 13.984 7.053 14.806 C 8.506 15.188 10.056 14.781 11.12 13.739 C 12.763 12.128 12.763 9.516 11.119 7.906 Z M 9.36 12.016 C 8.441 12.951 6.831 12.562 6.462 11.315 C 6.286 10.712 6.464 10.064 6.925 9.628 C 7.881 8.729 9.473 9.18 9.792 10.441 C 9.933 11.003 9.771 11.598 9.36 12.016 Z"
      style="fill: rgb(210, 104, 104);" />
  </g>
</svg>
