<?xml version="1.0" encoding="utf-8" ?>
<!-- Generator: Adobe Illustrator 26.5.0, SVG Export Plug-In . SVG Version: 6.00 Build 0)  -->
<svg
  version="1.1"
  id="Layer_1"
  xmlns="http://www.w3.org/2000/svg"
  x="0px"
  y="0px"
  viewBox="0 0 40 28"
  style="enable-background:new 0 0 32 32;"
  xml:space="preserve">
<style type="text/css">
.st0 {
  fill: #fc9d9d;
  stroke: #000000;
  stroke-miterlimit: 10;
}
  </style>

  <path
    class="st0"
    d="M 2.316 0.733 C 1.216 0.733 0.316 1.633 0.316 2.733 L 0.316 11.933 C 0.316 12.433 0.516 12.933 0.916 13.333 L 14.916 27.333 C 15.716 28.133 16.916 28.133 17.716 27.333 L 26.916 18.133 C 27.716 17.333 27.716 16.133 26.916 15.333 L 12.916 1.333 C 12.516 0.933 12.016 0.733 11.516 0.733 L 2.316 0.733 Z M 10.316 7.733 C 10.316 9.433 9.016 10.733 7.316 10.733 C 5.616 10.733 4.316 9.433 4.316 7.733 C 4.316 6.033 5.616 4.733 7.316 4.733 C 9.016 4.733 10.316 6.033 10.316 7.733 Z"
    style="fill: rgb(252, 157, 157); stroke: rgb(0, 0, 0); stroke-miterlimit: 10;" />
  <path
    class="st0"
    d="M 7.176 0.733 C 6.076 0.733 5.176 1.633 5.176 2.733 L 5.176 11.933 C 5.176 12.433 5.376 12.933 5.776 13.333 L 19.776 27.333 C 20.576 28.133 21.776 28.133 22.576 27.333 L 31.776 18.133 C 32.576 17.333 32.576 16.133 31.776 15.333 L 17.776 1.333 C 17.376 0.933 16.876 0.733 16.376 0.733 L 7.176 0.733 Z M 15.176 7.733 C 15.176 9.433 13.876 10.733 12.176 10.733 C 10.476 10.733 9.176 9.433 9.176 7.733 C 9.176 6.033 10.476 4.733 12.176 4.733 C 13.876 4.733 15.176 6.033 15.176 7.733 Z"
    style="stroke: rgb(0, 0, 0); stroke-miterlimit: 10; fill: rgb(250, 229, 59);" />
  <path
    class="st0"
    d="M 13.655 0.732 C 12.555 0.732 11.655 1.632 11.655 2.732 L 11.655 11.932 C 11.655 12.432 11.855 12.932 12.255 13.332 L 26.255 27.332 C 27.055 28.132 28.255 28.132 29.055 27.332 L 38.255 18.132 C 39.055 17.332 39.055 16.132 38.255 15.332 L 24.255 1.332 C 23.855 0.932 23.355 0.732 22.855 0.732 L 13.655 0.732 Z M 21.655 7.732 C 21.655 9.432 20.355 10.732 18.655 10.732 C 16.955 10.732 15.655 9.432 15.655 7.732 C 15.655 6.032 16.955 4.732 18.655 4.732 C 20.355 4.732 21.655 6.032 21.655 7.732 Z"
    style="stroke: rgb(0, 0, 0); stroke-miterlimit: 10; fill: rgb(59, 168, 250);" />

</svg>
