<?xml version="1.0" encoding="utf-8" ?>
<!-- MIT License https://www.svgrepo.com/svg/406030/label -->
<svg
  viewBox="0 5.0005 37.0726 30.9995"
  width="37.073"
  height="31"
  xmlns="http://www.w3.org/2000/svg">
  <g transform="matrix(1, 0, 0, 1, -1.9999999999999982, 0.0005000000237487257)">
    <path
      d="M 32.017 20.181 L 17.345 5.746 C 16.687 5.087 15.823 5 14.96 5 L 4.883 5 C 3.029 5 2 6.029 2 7.883 L 2 17.965 C 2 18.826 2.089 19.688 2.746 20.345 L 17.3 35.017 C 18.588 36.327 20.7 36.327 21.988 35.017 L 32.047 24.929 C 33.357 23.617 33.327 21.491 32.017 20.181 Z M 8.94 12.113 C 8.125 12.928 5.695 12.268 5.397 11.154 C 5.258 10.638 5.925 9.163 6.303 8.785 C 7.118 7.97 9.317 8.631 9.616 9.744 C 9.754 10.261 9.318 11.735 8.94 12.113 Z"
      fill="#FFD983" />
    <path
      d="M 10.529 7.945 C 9.099 6.514 6.779 6.514 5.35 7.945 C 3.356 9.939 4.268 13.343 6.992 14.073 C 8.256 14.412 9.604 14.05 10.53 13.125 C 11.959 11.694 11.959 9.375 10.529 7.945 Z M 8.999 11.595 C 8.199 12.426 6.799 12.08 6.478 10.972 C 6.324 10.437 6.479 9.861 6.88 9.475 C 7.712 8.675 9.097 9.076 9.374 10.196 C 9.497 10.696 9.356 11.224 8.999 11.595 Z"
      fill="#D99E82" />
  </g>
  <path
    d="M 34.558 20.181 L 19.886 5.746 C 19.228 5.087 18.364 5 17.501 5 L 7.424 5 C 5.57 5 4.541 6.029 4.541 7.883 L 4.541 17.965 C 4.541 18.826 4.63 19.688 5.287 20.345 L 19.841 35.017 C 21.129 36.327 23.241 36.327 24.529 35.017 L 34.588 24.929 C 35.898 23.617 35.868 21.491 34.558 20.181 Z M 11.481 12.113 C 10.666 12.928 8.236 12.268 7.938 11.154 C 7.799 10.638 8.466 9.163 8.844 8.785 C 9.659 7.97 11.858 8.631 12.157 9.744 C 12.295 10.261 11.859 11.735 11.481 12.113 Z"
    style="fill: rgb(38, 101, 38);"
    transform="matrix(1, 0, 0, 1, -1.9999999999999982, 0.0005000000237487257)" />
  <path
    d="M 13.07 7.945 C 11.64 6.514 9.32 6.514 7.891 7.945 C 5.897 9.939 6.809 13.343 9.533 14.073 C 10.797 14.412 12.145 14.05 13.071 13.125 C 14.5 11.694 14.5 9.375 13.07 7.945 Z M 11.54 11.595 C 10.74 12.426 9.34 12.08 9.019 10.972 C 8.865 10.437 9.02 9.861 9.421 9.475 C 10.253 8.675 11.638 9.076 11.915 10.196 C 12.038 10.696 11.897 11.224 11.54 11.595 Z"
    style="fill: rgb(88, 167, 70);"
    transform="matrix(1, 0, 0, 1, -1.9999999999999982, 0.0005000000237487257)" />
  <path
    d="M 38.075 20.181 L 23.403 5.746 C 22.745 5.087 21.881 5 21.018 5 L 10.941 5 C 9.087 5 8.058 6.029 8.058 7.883 L 8.058 17.965 C 8.058 18.826 8.147 19.688 8.804 20.345 L 23.358 35.017 C 24.646 36.327 26.758 36.327 28.046 35.017 L 38.105 24.929 C 39.415 23.617 39.385 21.491 38.075 20.181 Z M 14.998 12.113 C 14.183 12.928 11.753 12.268 11.455 11.154 C 11.316 10.638 11.983 9.163 12.361 8.785 C 13.176 7.97 15.375 8.631 15.674 9.744 C 15.812 10.261 15.376 11.735 14.998 12.113 Z"
    style="fill: rgb(82, 156, 212);"
    transform="matrix(1, 0, 0, 1, -1.9999999999999982, 0.0005000000237487257)" />
  <path
    d="M 16.587 7.945 C 15.157 6.514 12.837 6.514 11.408 7.945 C 9.414 9.939 10.326 13.343 13.05 14.073 C 14.314 14.412 15.662 14.05 16.588 13.125 C 18.017 11.694 18.017 9.375 16.587 7.945 Z M 15.057 11.595 C 14.257 12.426 12.857 12.08 12.536 10.972 C 12.382 10.437 12.537 9.861 12.938 9.475 C 13.77 8.675 15.155 9.076 15.432 10.196 C 15.555 10.696 15.414 11.224 15.057 11.595 Z"
    style="fill: rgb(60, 109, 242);"
    transform="matrix(1, 0, 0, 1, -1.9999999999999982, 0.0005000000237487257)" />
</svg>
